<svg width="145" height="44" viewBox="0 0 145 44" fill="none" xmlns="http://www.w3.org/2000/svg">
<path fill-rule="evenodd" clip-rule="evenodd" d="M11 6H0V15H11V15C12.8565 15 14.637 15.7375 15.9498 17.0502C17.2625 18.363 18 20.1435 18 22C18 23.8565 17.2625 25.637 15.9498 26.9498C14.637 28.2625 12.8565 29 11 29L11 38C15.2435 38 19.3131 36.3143 22.3137 33.3137C25.3143 30.3131 27 26.2435 27 22C27 17.7565 25.3143 13.6869 22.3137 10.6863C19.3131 7.68571 15.2435 6 11 6Z" fill="#4E46DC"/>
<path d="M46.3477 30.5H40.4531V13.0391H46.4766C48.2109 13.0391 49.707 13.3945 50.9648 14.1055C52.2227 14.8086 53.1914 15.8125 53.8711 17.1172C54.5508 18.4141 54.8906 19.957 54.8906 21.7461C54.8906 23.5508 54.5508 25.1094 53.8711 26.4219C53.1914 27.7266 52.2109 28.7344 50.9297 29.4453C49.6562 30.1484 48.1289 30.5 46.3477 30.5ZM43.5469 27.8516H46.1836C48.082 27.8516 49.4844 27.3203 50.3906 26.2578C51.3047 25.1875 51.7617 23.6836 51.7617 21.7461C51.7617 19.8242 51.3086 18.3359 50.4023 17.2812C49.4961 16.2188 48.1211 15.6875 46.2773 15.6875H43.5469V27.8516ZM61.8581 30.7812C60.6394 30.7812 59.573 30.5117 58.6589 29.9727C57.7448 29.4258 57.03 28.668 56.5144 27.6992C56.0066 26.7305 55.7527 25.6055 55.7527 24.3242C55.7527 23.043 56.0066 21.918 56.5144 20.9492C57.03 19.9727 57.7448 19.2109 58.6589 18.6641C59.573 18.1172 60.6394 17.8438 61.8581 17.8438C63.0691 17.8438 64.1316 18.1172 65.0456 18.6641C65.9675 19.2109 66.6823 19.9727 67.1902 20.9492C67.7058 21.918 67.9636 23.043 67.9636 24.3242C67.9636 25.6055 67.7058 26.7305 67.1902 27.6992C66.6823 28.668 65.9675 29.4258 65.0456 29.9727C64.1316 30.5117 63.0691 30.7812 61.8581 30.7812ZM61.8581 28.3086C62.8034 28.3086 63.5573 27.9531 64.1198 27.2422C64.6823 26.5312 64.9636 25.5586 64.9636 24.3242C64.9636 23.0898 64.6823 22.1133 64.1198 21.3945C63.5573 20.6758 62.8034 20.3164 61.8581 20.3164C60.905 20.3164 60.1472 20.6758 59.5847 21.3945C59.0222 22.1055 58.7409 23.082 58.7409 24.3242C58.7409 25.5586 59.0222 26.5312 59.5847 27.2422C60.1472 27.9531 60.905 28.3086 61.8581 28.3086ZM74.767 30.7812C73.5639 30.7812 72.5053 30.5078 71.5912 29.9609C70.685 29.4141 69.978 28.6562 69.4702 27.6875C68.9702 26.7188 68.7202 25.5977 68.7202 24.3242C68.7202 23.0508 68.9702 21.9297 69.4702 20.9609C69.978 19.9844 70.685 19.2227 71.5912 18.6758C72.5053 18.1211 73.5639 17.8438 74.767 17.8438C75.8061 17.8438 76.7319 18.0469 77.5444 18.4531C78.3569 18.8516 79.0092 19.4062 79.5014 20.1172C80.0014 20.8203 80.2944 21.6328 80.3803 22.5547H77.4858C77.3764 21.8906 77.0912 21.3516 76.6303 20.9375C76.1772 20.5156 75.5678 20.3047 74.8022 20.3047C73.8334 20.3047 73.0756 20.668 72.5287 21.3945C71.9819 22.1211 71.7084 23.0977 71.7084 24.3242C71.7084 25.543 71.9819 26.5156 72.5287 27.2422C73.0756 27.9609 73.8334 28.3203 74.8022 28.3203C75.5756 28.3203 76.1772 28.1172 76.6069 27.7109C77.0366 27.2969 77.3217 26.7461 77.4623 26.0586H80.3803C80.31 26.9648 80.0248 27.7734 79.5248 28.4844C79.0327 29.1953 78.3764 29.7578 77.5561 30.1719C76.7436 30.5781 75.8139 30.7812 74.767 30.7812ZM86.0588 30.7461C84.7619 30.7461 83.7033 30.3281 82.883 29.4922C82.0627 28.6562 81.6525 27.4453 81.6525 25.8594V18.125H84.6056V25.3906C84.6056 26.2969 84.8244 26.9844 85.2619 27.4531C85.6994 27.9219 86.3127 28.1562 87.1017 28.1562C87.883 28.1562 88.5275 27.9141 89.0353 27.4297C89.5509 26.9453 89.8088 26.1758 89.8088 25.1211V18.125H92.7736V30.5H89.8673V28.6016C89.0002 30.0312 87.7306 30.7461 86.0588 30.7461ZM94.6903 30.5V18.125H97.5497V20.2695C97.9247 19.4727 98.4442 18.875 99.1083 18.4766C99.7723 18.0781 100.495 17.8789 101.276 17.8789C102.112 17.8789 102.85 18.0938 103.491 18.5234C104.132 18.9453 104.581 19.5117 104.839 20.2227C105.167 19.5117 105.679 18.9453 106.374 18.5234C107.069 18.0938 107.87 17.8789 108.776 17.8789C109.948 17.8789 110.932 18.2578 111.729 19.0156C112.526 19.7734 112.925 20.8789 112.925 22.332V30.5H109.96V22.7539C109.96 21.9336 109.733 21.3359 109.28 20.9609C108.835 20.5781 108.296 20.3867 107.663 20.3867C106.913 20.3867 106.319 20.6211 105.882 21.0898C105.452 21.5586 105.237 22.1641 105.237 22.9062V30.5H102.366V22.6133C102.366 21.9414 102.155 21.4023 101.733 20.9961C101.311 20.5898 100.772 20.3867 100.116 20.3867C99.452 20.3867 98.8739 20.6211 98.3817 21.0898C97.8895 21.5508 97.6434 22.2266 97.6434 23.1172V30.5H94.6903ZM114.83 30.5V18.125H117.783V30.5H114.83ZM116.306 16.2852C115.798 16.2852 115.377 16.125 115.041 15.8047C114.705 15.4766 114.537 15.0742 114.537 14.5977C114.537 14.1211 114.705 13.7227 115.041 13.4023C115.377 13.082 115.798 12.9219 116.306 12.9219C116.806 12.9219 117.224 13.082 117.56 13.4023C117.896 13.7227 118.064 14.1211 118.064 14.5977C118.064 15.0742 117.896 15.4766 117.56 15.8047C117.224 16.125 116.806 16.2852 116.306 16.2852ZM122.641 23.5039V30.5H119.688V18.125H122.594V20.0234C123.453 18.5938 124.719 17.8789 126.391 17.8789C127.688 17.8789 128.746 18.2969 129.567 19.1328C130.395 19.9688 130.809 21.1797 130.809 22.7656V30.5H127.844V23.2344C127.844 22.3281 127.625 21.6406 127.188 21.1719C126.75 20.7031 126.137 20.4688 125.348 20.4688C124.575 20.4688 123.93 20.7109 123.414 21.1953C122.899 21.6797 122.641 22.4492 122.641 23.5039ZM137.507 30.7461C136.429 30.7461 135.487 30.4766 134.683 29.9375C133.878 29.3984 133.253 28.6484 132.808 27.6875C132.37 26.7188 132.151 25.5898 132.151 24.3008C132.151 23.0352 132.374 21.9219 132.819 20.9609C133.265 19.9922 133.89 19.2383 134.694 18.6992C135.499 18.1523 136.429 17.8789 137.483 17.8789C138.288 17.8789 139.011 18.043 139.651 18.3711C140.292 18.6992 140.812 19.2031 141.21 19.8828H141.233V13.0391H144.187V30.5H141.28V28.6133H141.257C140.866 29.332 140.343 29.8672 139.687 30.2188C139.038 30.5703 138.312 30.7461 137.507 30.7461ZM138.198 28.2734C139.167 28.2734 139.94 27.9141 140.519 27.1953C141.105 26.4688 141.397 25.5039 141.397 24.3008C141.397 23.0977 141.105 22.1367 140.519 21.418C139.94 20.6914 139.167 20.3281 138.198 20.3281C137.284 20.3281 136.546 20.6719 135.983 21.3594C135.421 22.0469 135.14 23.0273 135.14 24.3008C135.14 25.582 135.421 26.5664 135.983 27.2539C136.546 27.9336 137.284 28.2734 138.198 28.2734Z" fill="#0D0D12"/>
</svg>
